<svg width="400" height="200" viewBox="0 0 400 200" xmlns="http://www.w3.org/2000/svg">
  <g transform="translate(200, 90)">
    <path d="M-60,0 Q-45,-40 -30,0 Q-15,40 0,0 Q15,-40 30,0 Q45,40 60,0" fill="none" stroke="#1a1a1a" stroke-width="2.5" stroke-linecap="round" opacity="0.9"/>
    <path d="M-52,0 Q-39,-25 -26,0 Q-13,25 0,0 Q13,-25 26,0 Q39,25 52,0" fill="none" stroke="#1a1a1a" stroke-width="1.4" stroke-linecap="round" opacity="0.5"/>
    <path d="M-44,0 Q-33,-12 -22,0 Q-11,12 0,0 Q11,-12 22,0 Q33,12 44,0" fill="none" stroke="#1a1a1a" stroke-width="0.7" stroke-linecap="round" opacity="0.25"/>
  </g>
  <text x="200" y="170" text-anchor="middle" font-family="Helvetica Neue, Arial, sans-serif" font-weight="500" font-size="22" letter-spacing="0.12em" fill="#1a1a1a">RESONANT LABS</text>
</svg>
